ffmpeg started on 2016-11-30 at 08:36:09
Report written to "Output/x264/results/ffmpeg/old_town_cross_2160p50faster10000k.log"
Command line:
Tools/ffmpeg/ffmpeg -benchmark -y -i Input/y4m/old_town_cross_2160p50.y4m -c:v libx264 -preset faster -b:v 10000k -an Output/x264/encoded/old_town_cross_2160p50faster10000k.mkv
ffmpeg version N-82227-gdb23fde Copyright (c) 2000-2016 the FFmpeg developers
  built with gcc 5.4.0 (Ubuntu 5.4.0-6ubuntu1~16.04.2) 20160609
  configuration: --prefix=/home/jaroslav/ffmpeg_build --pkg-config-flags=--static --extra-cflags=-I/home/jaroslav/ffmpeg_build/include --extra-ldflags=-L/home/jaroslav/ffmpeg_build/lib --bindir=/home/jaroslav/bin --enable-gpl --enable-libass --enable-libfdk-aac --enable-libfreetype --enable-libmp3lame --enable-libopus --enable-libtheora --enable-libvorbis --enable-libvpx --enable-libx264 --enable-libx265 --enable-nvenc --enable-libmfx --enable-libxvid --enable-libgsm --enable-libopencore-amrnb --enable-version3 --enable-nonfree
  libavutil      55. 35.100 / 55. 35.100
  libavcodec     57. 66.101 / 57. 66.101
  libavformat    57. 57.100 / 57. 57.100
  libavdevice    57.  2.100 / 57.  2.100
  libavfilter     6. 66.100 /  6. 66.100
  libswscale      4.  3.100 /  4.  3.100
  libswresample   2.  4.100 /  2.  4.100
  libpostproc    54.  2.100 / 54.  2.100
Input #0, yuv4mpegpipe, from 'Input/y4m/old_town_cross_2160p50.y4m':
  Duration: 00:00:10.00, start: 0.000000, bitrate: 4976642 kb/s
    Stream #0:0: Video: rawvideo (I420 / 0x30323449), yuv420p(progressive), 3840x2160, SAR 1:1 DAR 16:9, 50 fps, 50 tbr, 50 tbn, 50 tbc
[libx264 @ 0x3795120] using SAR=1/1
[libx264 @ 0x3795120] using cpu capabilities: MMX2 SSE2Fast SSSE3 SSE4.2 AVX FMA3 AVX2 LZCNT BMI2
[libx264 @ 0x3795120] profile High, level 5.2
[libx264 @ 0x3795120] 264 - core 148 - H.264/MPEG-4 AVC codec - Copyleft 2003-2016 - http://www.videolan.org/x264.html - options: cabac=1 ref=2 deblock=1:0:0 analyse=0x3:0x113 me=hex subme=4 psy=1 psy_rd=1.00:0.00 mixed_ref=0 me_range=16 chroma_me=1 trellis=1 8x8dct=1 cqm=0 deadzone=21,11 fast_pskip=1 chroma_qp_offset=0 threads=6 lookahead_threads=1 sliced_threads=0 nr=0 decimate=1 interlaced=0 bluray_compat=0 constrained_intra=0 bframes=3 b_pyramid=2 b_adapt=1 b_bias=0 direct=1 weightb=1 open_gop=0 weightp=1 keyint=250 keyint_min=25 scenecut=40 intra_refresh=0 rc_lookahead=20 rc=abr mbtree=1 bitrate=10000 ratetol=1.0 qcomp=0.60 qpmin=0 qpmax=69 qpstep=4 ip_ratio=1.40 aq=1:1.00
Output #0, matroska, to 'Output/x264/encoded/old_town_cross_2160p50faster10000k.mkv':
  Metadata:
    encoder         : Lavf57.57.100
    Stream #0:0: Video: h264 (libx264) (H264 / 0x34363248), yuv420p, 3840x2160 [SAR 1:1 DAR 16:9], q=-1--1, 10000 kb/s, 50 fps, 1k tbn, 50 tbc
    Metadata:
      encoder         : Lavc57.66.101 libx264
    Side data:
      cpb: bitrate max/min/avg: 0/0/10000000 buffer size: 0 vbv_delay: -1
Stream mapping:
  Stream #0:0 -> #0:0 (rawvideo (native) -> h264 (libx264))
Press [q] to stop, [?] for help
frame=   27 fps= 21 q=0.0 size=       0kB time=00:00:00.00 bitrate=N/A speed=   0x    frame=   36 fps= 20 q=38.0 size=       1kB time=00:00:00.06 bitrate=  96.1kbits/s speed=0.0341x    frame=   47 fps= 20 q=37.0 size=       1kB time=00:00:00.28 bitrate=  20.9kbits/s speed=0.122x    frame=   56 fps= 19 q=36.0 size=       1kB time=00:00:00.46 bitrate=  12.7kbits/s speed=0.154x    frame=   67 fps= 19 q=34.0 size=       1kB time=00:00:00.68 bitrate=   8.6kbits/s speed=0.195x    frame=   76 fps= 18 q=34.0 size=       1kB time=00:00:00.86 bitrate=   6.8kbits/s speed=0.205x    frame=   87 fps= 19 q=33.0 size=       1kB time=00:00:01.08 bitrate=   5.4kbits/s speed=0.23x    frame=   96 fps= 18 q=33.0 size=       1kB time=00:00:01.26 bitrate=   4.7kbits/s speed=0.234x    frame=  107 fps= 18 q=33.0 size=       1kB time=00:00:01.48 bitrate=   4.0kbits/s speed=0.25x    frame=  116 fps= 18 q=33.0 size=       1kB time=00:00:01.66 bitrate=   3.5kbits/s speed=0.252x    frame=  127 fps= 18 q=33.0 size=       1kB time=00:00:01.88 bitrate=   3.1kbits/s speed=0.265x    frame=  136 fps= 17 q=33.0 size=       1kB time=00:00:02.06 bitrate=   2.8kbits/s speed=0.265x    frame=  147 fps= 18 q=33.0 size=       1kB time=00:00:02.28 bitrate=   2.6kbits/s speed=0.275x    frame=  156 fps= 17 q=33.0 size=       1kB time=00:00:02.46 bitrate=   2.4kbits/s speed=0.274x    frame=  166 fps= 17 q=33.0 size=       1kB time=00:00:02.66 bitrate=   2.2kbits/s speed=0.28x    frame=  176 fps= 17 q=33.0 size=       1kB time=00:00:02.86 bitrate=   2.0kbits/s speed=0.281x    frame=  187 fps= 18 q=33.0 size=       1kB time=00:00:03.08 bitrate=   1.9kbits/s speed=0.288x    frame=  196 fps= 17 q=33.0 size=       1kB time=00:00:03.26 bitrate=   1.8kbits/s speed=0.287x    frame=  207 fps= 17 q=33.0 size=       1kB time=00:00:03.48 bitrate=   1.7kbits/s speed=0.293x    frame=  216 fps= 17 q=33.0 size=       1kB time=00:00:03.66 bitrate=   1.6kbits/s speed=0.291x    frame=  227 fps= 17 q=33.0 size=       1kB time=00:00:03.88 bitrate=   1.5kbits/s speed=0.297x    frame=  236 fps= 17 q=33.0 size=       1kB time=00:00:04.06 bitrate=   1.4kbits/s speed=0.295x    frame=  242 fps= 17 q=33.0 size=       1kB time=00:00:04.18 bitrate=   1.4kbits/s speed=0.286x    frame=  245 fps= 16 q=33.0 size=       1kB time=00:00:04.24 bitrate=   1.4kbits/s speed=0.276x    frame=  250 fps= 16 q=33.0 size=    5148kB time=00:00:04.34 bitrate=9714.2kbits/s speed=0.272x    frame=  255 fps= 15 q=33.0 size=    5148kB time=00:00:04.44 bitrate=9495.5kbits/s speed=0.268x    frame=  260 fps= 15 q=34.0 size=    5148kB time=00:00:04.54 bitrate=9286.4kbits/s speed=0.265x    frame=  265 fps= 15 q=34.0 size=    5148kB time=00:00:04.64 bitrate=9086.3kbits/s speed=0.262x    frame=  270 fps= 15 q=34.0 size=    5148kB time=00:00:04.74 bitrate=8894.6kbits/s speed=0.26x    frame=  275 fps= 15 q=31.0 size=    5148kB time=00:00:04.84 bitrate=8710.9kbits/s speed=0.257x    frame=  284 fps= 15 q=35.0 size=    6047kB time=00:00:05.02 bitrate=9866.7kbits/s speed=0.26x    frame=  293 fps= 15 q=34.0 size=    6047kB time=00:00:05.20 bitrate=9525.2kbits/s speed=0.26x    frame=  303 fps= 15 q=34.0 size=    6047kB time=00:00:05.40 bitrate=9172.5kbits/s speed=0.264x    frame=  313 fps= 15 q=34.0 size=    6047kB time=00:00:05.60 bitrate=8844.9kbits/s speed=0.264x    frame=  324 fps= 15 q=34.0 size=    6047kB time=00:00:05.82 bitrate=8510.7kbits/s speed=0.268x    frame=  333 fps= 15 q=34.0 size=    6047kB time=00:00:06.00 bitrate=8255.4kbits/s speed=0.268x    frame=  344 fps= 15 q=34.0 size=    6047kB time=00:00:06.22 bitrate=7963.4kbits/s speed=0.272x    frame=  353 fps= 15 q=34.0 size=    6047kB time=00:00:06.40 bitrate=7739.5kbits/s speed=0.272x    frame=  364 fps= 15 q=34.0 size=    6047kB time=00:00:06.62 bitrate=7482.3kbits/s speed=0.275x    frame=  373 fps= 15 q=34.0 size=    6047kB time=00:00:06.80 bitrate=7284.3kbits/s speed=0.274x    frame=  384 fps= 15 q=33.0 size=    6047kB time=00:00:07.02 bitrate=7056.1kbits/s speed=0.278x    frame=  392 fps= 15 q=33.0 size=    6047kB time=00:00:07.18 bitrate=6898.8kbits/s speed=0.278x    frame=  401 fps= 15 q=33.0 size=    6047kB time=00:00:07.36 bitrate=6730.1kbits/s speed=0.278x    frame=  412 fps= 15 q=33.0 size=    6047kB time=00:00:07.58 bitrate=6534.8kbits/s speed=0.281x    frame=  421 fps= 15 q=33.0 size=    6047kB time=00:00:07.76 bitrate=6383.3kbits/s speed=0.281x    frame=  432 fps= 15 q=33.0 size=    6047kB time=00:00:07.98 bitrate=6207.3kbits/s speed=0.283x    frame=  441 fps= 15 q=33.0 size=    6047kB time=00:00:08.16 bitrate=6070.4kbits/s speed=0.283x    frame=  452 fps= 15 q=33.0 size=    6047kB time=00:00:08.38 bitrate=5911.1kbits/s speed=0.285x    frame=  460 fps= 15 q=33.0 size=    6047kB time=00:00:08.54 bitrate=5800.3kbits/s speed=0.286x    frame=  469 fps= 15 q=33.0 size=    6047kB time=00:00:08.72 bitrate=5680.6kbits/s speed=0.285x    frame=  479 fps= 15 q=33.0 size=    6047kB time=00:00:08.92 bitrate=5553.3kbits/s speed=0.287x    frame=  483 fps= 15 q=33.0 size=    6047kB time=00:00:09.00 bitrate=5503.9kbits/s speed=0.282x    frame=  486 fps= 15 q=33.0 size=    6047kB time=00:00:09.06 bitrate=5467.4kbits/s speed=0.277x    frame=  491 fps= 15 q=34.0 size=    6047kB time=00:00:09.16 bitrate=5407.8kbits/s speed=0.276x    frame=  496 fps= 15 q=34.0 size=   11198kB time=00:00:09.26 bitrate=9905.0kbits/s speed=0.274x    frame=  500 fps= 15 q=34.0 size=   11198kB time=00:00:09.34 bitrate=9820.2kbits/s speed=0.272x    frame=  500 fps= 14 q=-1.0 Lsize=   12450kB time=00:00:09.94 bitrate=10259.9kbits/s speed=0.279x    
video:12446kB audio:0kB subtitle:0kB other streams:0kB global headers:0kB muxing overhead: 0.036722%
bench: utime=113.436s
bench: maxrss=1347040kB
[libx264 @ 0x3795120] frame I:3     Avg QP:29.52  size:366020
[libx264 @ 0x3795120] frame P:183   Avg QP:31.65  size: 38815
[libx264 @ 0x3795120] frame B:314   Avg QP:33.55  size: 14467
[libx264 @ 0x3795120] consecutive B-frames: 16.0%  0.8%  0.0% 83.2%
[libx264 @ 0x3795120] mb I  I16..4: 30.2% 53.9% 15.9%
[libx264 @ 0x3795120] mb P  I16..4:  2.5%  2.5%  0.0%  P16..4: 25.2%  3.5%  0.4%  0.0%  0.0%    skip:66.0%
[libx264 @ 0x3795120] mb B  I16..4:  0.4%  0.3%  0.0%  B16..8: 13.7%  0.5%  0.0%  direct: 9.8%  skip:75.3%  L0:36.4% L1:63.0% BI: 0.6%
[libx264 @ 0x3795120] final ratefactor: 25.76
[libx264 @ 0x3795120] 8x8 transform intra:50.0% inter:64.3%
[libx264 @ 0x3795120] coded y,uvDC,uvAC intra: 45.6% 38.2% 15.8% inter: 5.5% 4.3% 0.0%
[libx264 @ 0x3795120] i16 v,h,dc,p: 38% 30% 24%  8%
[libx264 @ 0x3795120] i8 v,h,dc,ddl,ddr,vr,hd,vl,hu: 10% 16% 53%  3%  3%  3%  5%  3%  4%
[libx264 @ 0x3795120] i4 v,h,dc,ddl,ddr,vr,hd,vl,hu: 17% 26% 11%  7%  7%  7% 10%  6%  9%
[libx264 @ 0x3795120] i8c dc,h,v,p: 71% 13% 14%  1%
[libx264 @ 0x3795120] Weighted P-Frames: Y:0.5% UV:0.0%
[libx264 @ 0x3795120] ref P L0: 75.9% 24.1%
[libx264 @ 0x3795120] ref B L0: 89.2% 10.8%
[libx264 @ 0x3795120] ref B L1: 96.2%  3.8%
[libx264 @ 0x3795120] kb/s:10195.09
